<svg xmlns="http://www.w3.org/2000/svg" xmlns:xlink="http://www.w3.org/1999/xlink" width="47" height="24" viewBox="0 0 47 24">
    <defs>
        <path id="a" d="M0 0h48v24H0z"/>
    </defs>
    <g fill="none" fill-rule="evenodd" transform="translate(-1)">
        <mask id="b" fill="#fff">
            <use xlink:href="#a"/>
        </mask>
        <path fill="#171B1D" d="M47.54 5.236c.115.668.172 1.333.169 2.144v8.57a14.764 14.764 0 0 1-.114 1.834l-.004.033c-.426 3.525-3.018 5.64-6.978 5.64H39.43l-.381.004-.673.001h-.27a.37.37 0 0 1-.37-.37v-.003-1.331-.005a.37.37 0 0 1 .371-.37h.404l.858-.005.72-.01c3.516 0 5.513-2.156 5.516-5.344l-.002-8.663c0-3.215-1.994-5.265-5.512-5.265H8.645c-3.518 0-5.535 2.071-5.535 5.286l-.002 8.664c.002 3.187 2.021 5.333 5.538 5.333h21.236V9.217v-.004a.37.37 0 0 1 .37-.37H31.61c.205 0 .371.166.371.37v13.883a.37.37 0 0 1-.37.371h-.002H8.121c-3.96 0-6.577-2.104-7.003-5.629l-.004-.032c-.001-.007-.11-.768-.114-1.834v-8.57c-.003-.811.054-1.476.168-2.144l.06-.293C1.868 1.903 4.508.001 8.121.001h24.74L40.613 0c3.613 0 6.228 1.881 6.868 4.943l.06.293zm-27.1 10.219V6.51c0-.205.166-.371.37-.371H22.168c.205 0 .371.166.371.371v9.381h.676a.37.37 0 0 1 .372.372v1.175a.375.375 0 0 1-.374.375h-.585c-1.31 0-2.188-.955-2.188-2.36zm4.722-5.206c0-.205.166-.371.37-.371H26.89c.205 0 .37.166.37.37v.001l.001.003v5.64h.658a.37.37 0 0 1 .344.227v.001a.37.37 0 0 1 .03.143V17.442a.371.371 0 0 1-.372.37l-.002.001h-.565c-1.311 0-2.192-.943-2.192-2.348v-5.213-.003zM18.83 6.67a.368.368 0 0 1-.073.11l-5.084 4.527 5.131 5.876a.37.37 0 0 1 .059.354c-.004.012-.007.025-.012.037 0 .001 0 .003-.002.005a.367.367 0 0 1-.064.093c-.01.011-.024.02-.036.03a.369.369 0 0 1-.224.087l-.01.002h-.001-1.585-.002a.383.383 0 0 1-.128-.026l-.02-.007a.367.367 0 0 1-.118-.085l-.023-.022-4.825-5.377a1.447 1.447 0 0 1 .109-1.934l4.76-4.09a.372.372 0 0 1 .12-.081c.034-.014.052-.017.09-.025a.34.34 0 0 1 .052-.004h1.549c.001 0 .092.012.127.025.02.006.037.016.054.026a.35.35 0 0 1 .05.033.352.352 0 0 1 .052.047c.01.01.016.022.024.036a.456.456 0 0 1 .053.12c.004.02.01.109.009.122a.375.375 0 0 1-.016.076c-.005.015-.009.03-.016.045zm6.703 1.526a.368.368 0 0 1-.346-.244.357.357 0 0 1-.026-.126V6.51v-.004c0-.202.167-.367.372-.367h1.355a.37.37 0 0 1 .372.371v1.316a.37.37 0 0 1-.372.37h-1.354-.001zM10.472 6.5l-.001.004V17.42a.37.37 0 0 1-.37.371H8.747h-.002a.371.371 0 0 1-.372-.374V6.502c0-.052.01-.1.03-.146 0-.003.003-.005.004-.007a.364.364 0 0 1 .067-.1c.009-.01.019-.017.028-.026a.358.358 0 0 1 .078-.052l.034-.017a.358.358 0 0 1 .13-.026H10.1c.205 0 .37.166.37.371zm29.794 7.59c-.329 1.576-1.626 2.564-3.452 2.564h-3.412-.002-.001a.37.37 0 0 1-.37-.371l-.001-.003v-1.33c0-.022.009-.04.012-.06.005-.029.006-.057.017-.084a.368.368 0 0 1 .068-.102c.005-.006.007-.014.012-.02.006-.005.013-.006.018-.011a.374.374 0 0 1 .104-.069c.029-.012.06-.014.09-.018.018-.003.035-.01.053-.01H36.544c1.249 0 1.882-.567 1.882-1.682v-.038c0-1.091-.633-1.657-1.882-1.657H33.402a.377.377 0 0 1-.344-.227.371.371 0 0 1-.03-.147v-1.33a.372.372 0 0 1 .373-.375h3.371c1.973 0 3.333 1.11 3.55 2.896.004.032.137.98-.027 1.933l-.013.073c-.004.023-.016.068-.016.068z" mask="url(#b)"/>
    </g>
</svg>
